<svg width="29" height="29" viewBox="0 0 29 29" fill="none" xmlns="http://www.w3.org/2000/svg">
<path fill-rule="evenodd" clip-rule="evenodd" d="M13.2915 4.83332C8.6201 4.83332 4.83317 8.62025 4.83317 13.2917C4.83317 17.9631 8.6201 21.75 13.2915 21.75C17.9629 21.75 21.7498 17.9631 21.7498 13.2917C21.7498 8.62025 17.9629 4.83332 13.2915 4.83332ZM2.4165 13.2917C2.4165 7.28556 7.28541 2.41666 13.2915 2.41666C19.2976 2.41666 24.1665 7.28556 24.1665 13.2917C24.1665 19.2978 19.2976 24.1667 13.2915 24.1667C7.28541 24.1667 2.4165 19.2978 2.4165 13.2917Z" fill="black"/>
<path fill-rule="evenodd" clip-rule="evenodd" d="M19.2646 19.2643C19.7364 18.7925 20.5015 18.7925 20.9734 19.2643L26.2296 24.5206C26.7015 24.9925 26.7015 25.7576 26.2296 26.2294C25.7578 26.7013 24.9927 26.7013 24.5208 26.2294L19.2646 20.9732C18.7927 20.5013 18.7927 19.7362 19.2646 19.2643Z" fill="black"/>
</svg>
